<svg xmlns="http://www.w3.org/2000/svg" viewBox="0 0 26.29 26.22"><defs><style>.cls-1{fill:#fff;}</style></defs><g id="Capa_2" data-name="Capa 2"><g id="Contacto"><path class="cls-1" d="M0,5.86c0-.3.08-.61.13-.91A6.7,6.7,0,0,1,1.31,2,7.07,7.07,0,0,1,2.91.39,2,2,0,0,1,5.57.64c1.35,1.33,2.68,2.66,4,4a2.06,2.06,0,0,1,0,2.94C9,8.23,8.36,8.83,7.75,9.44c-.08.08-.17.14-.24.2a19.27,19.27,0,0,0,9.14,9.14L18,17.43c.24-.23.46-.47.7-.69a2.09,2.09,0,0,1,2.48-.38,3.44,3.44,0,0,1,.73.59c1.21,1.2,2.41,2.42,3.62,3.62a2.74,2.74,0,0,1,.78,1.33v.59a4.23,4.23,0,0,1-.48,1,7.5,7.5,0,0,1-2,1.79,6.15,6.15,0,0,1-3,.91A11.72,11.72,0,0,1,18.68,26a16.52,16.52,0,0,1-5.08-1.86,25.65,25.65,0,0,1-4.43-3.05,42.3,42.3,0,0,1-5.08-5.2A20.67,20.67,0,0,1,1,11.12,11.45,11.45,0,0,1,.17,8.36C.1,8,.06,7.59,0,7.2Z"/></g></g></svg>