<svg xmlns="http://www.w3.org/2000/svg" viewBox="0 0 75.24 70.03"><defs><style>.cls-1{fill:#efefef;}</style></defs><g id="Capa_2" data-name="Capa 2"><g id="Hero"><path class="cls-1" d="M55.41,22.59l.05.05a2.51,2.51,0,0,1,0,3.56L38.63,43A2.56,2.56,0,0,1,35,39.41L38,36.48a8.62,8.62,0,0,0-3.61.29c-2,.78-3.17,2.73-4.63,4.22l-4.19,4.26a5.51,5.51,0,0,0-1.41,2.23,3.79,3.79,0,0,0,.2,2.44,6.79,6.79,0,0,0,1.58,2.38q5.59,5.61,11.21,11.21a4.08,4.08,0,0,0,5,1,7.57,7.57,0,0,0,2.47-1.68L65.18,42.25a1.47,1.47,0,0,1,2.08,0l1.57,1.57a1.47,1.47,0,0,1,0,2.09L50.59,64.16c-1,1-1.91,2-2.93,2.91A10.89,10.89,0,0,1,41.51,70a9.69,9.69,0,0,1-7.15-2,20.24,20.24,0,0,1-1.81-1.65Q27.3,61.08,22.1,55.85a10.47,10.47,0,0,1-3-5.51A9.55,9.55,0,0,1,20.71,43a13.47,13.47,0,0,1,1.49-1.79c1.15-1.18,2.33-2.33,3.49-3.51s2.12-2.55,3.33-3.68a10.77,10.77,0,0,1,3.79-2.4,13.11,13.11,0,0,1,4.91-.42c1.71.13,3.45,0,5.16,0a.64.64,0,0,0,.47-.19l8.44-8.48A2.55,2.55,0,0,1,55.41,22.59Z"/><path class="cls-1" d="M37.75,7.86c.63-.58,1.26-1.19,1.92-1.77A24.13,24.13,0,0,1,50.48.53a20.13,20.13,0,0,1,12.13.9A20.55,20.55,0,0,1,74.78,15.07a16.88,16.88,0,0,1,0,7.87c-.63,2.61-1.81,6.92-3.28,9.13,0,0-3-4.42-3.69-5.16-.09,0,.76-1.92,1.09-2.81a12.83,12.83,0,0,0,.65-7.81A15,15,0,0,0,58,5.66a15.15,15.15,0,0,0-9,1.14,30.17,30.17,0,0,0-7.55,4.81,33.73,33.73,0,0,0-3.44,3.53l-.33.37c-.21-.24-.43-.46-.63-.7a29.84,29.84,0,0,0-7-6,21.61,21.61,0,0,0-6.86-3,13.84,13.84,0,0,0-8.82.81A14.6,14.6,0,0,0,5.75,17a10.9,10.9,0,0,0-.26,4.33,12.38,12.38,0,0,0,1.22,3.49,21.16,21.16,0,0,0,3.84,5.26c2.4,2.42,4.83,4.83,7.24,7.24a2.62,2.62,0,0,0,.21.17l-3.84,3.84-.95-1c-2.17-2.17-4.35-4.31-6.5-6.5a26.44,26.44,0,0,1-5.5-8A14.42,14.42,0,0,1,0,19,20,20,0,0,1,6.53,5.41,19.72,19.72,0,0,1,17.16.25a20.72,20.72,0,0,1,6,0,23.56,23.56,0,0,1,11.9,5.3C36,6.26,36.86,7.07,37.75,7.86Z"/></g></g></svg>