<svg xmlns="http://www.w3.org/2000/svg" viewBox="0 0 87.03 62.85"><defs><style>.cls-1{fill:#efefef;}</style></defs><g id="Capa_2" data-name="Capa 2"><g id="Hero"><path class="cls-1" d="M70,39.58c-3.08-2.93-6.21-5.8-9.15-8.88-3.61-3.8-7-7.79-10.56-11.68a1.25,1.25,0,0,0-.8-.47,6.48,6.48,0,0,0-3.76,1.13c-3.77,2.81-7.6,5.53-11.4,8.27-2.53,1.82-4.85,1.72-7.1-.43s-3.05-6.05-.78-8.7c2.64-3.08,5.34-6.1,8.14-9C36.1,8.24,37.89,7,39.68,5.45c-1,.06-1.84.1-2.68.17a37.65,37.65,0,0,0-10,2c-1.74.65-3.49,1.43-4.5,3.24-3,5.35-5.87,10.73-8.79,16.11A5.58,5.58,0,0,0,13,28.87a9.07,9.07,0,0,0,1.27,5.76c.3.5.52.6,1.07.39,4-1.51,8.22,1.15,9,5.65.1.61.28.85.9.89a5.64,5.64,0,0,1,4.77,3,22.89,22.89,0,0,1,1.15,2.85,7,7,0,0,1,6.77,8.93c3.19,2,6.38,4,9.6,6a3.54,3.54,0,0,0,4.71-1.09,3.18,3.18,0,0,0-.33-.3c-1.48-1-3-2.08-4.46-3.15a1.83,1.83,0,0,1-.49-2.8c.73-1.07,1.68-1.14,2.74-.33A40.78,40.78,0,0,0,54,57.8c1.86,1.08,4.64-.13,5.52-2.18.28-.65.19-1-.44-1.26a12.62,12.62,0,0,1-1.71-.89,11.14,11.14,0,0,1-3.93-3.21A1.85,1.85,0,0,1,53.49,48a1.41,1.41,0,0,1,1.92-.55,13.92,13.92,0,0,1,2.11,1.3,10.77,10.77,0,0,0,4.55,2.48,2.81,2.81,0,0,0,3.16-1.84,1,1,0,0,0-.51-1.51,48.81,48.81,0,0,1-5-3.55,2,2,0,0,1-.38-2.78c.66-.9,1.45-1,2.57-.29s2.33,1.73,3.52,2.57a3.77,3.77,0,0,0,3.31.89,3.44,3.44,0,0,0,2.47-2.57C71.49,40.9,70.73,40.29,70,39.58Z"/><path class="cls-1" d="M31.56,51.53a3.18,3.18,0,0,0-2.75,3.36,2.29,2.29,0,0,0,2.47,2.34,3.13,3.13,0,0,0,3-3.07A2.78,2.78,0,0,0,31.56,51.53Z"/><path class="cls-1" d="M24.23,45.64c-1.7.46-2.56,1.83-3.08,3.5a2.13,2.13,0,0,0,1.62,3c1.89.39,4.41-1.78,4.48-3.85A2.46,2.46,0,0,0,24.23,45.64Z"/><path class="cls-1" d="M17.59,38.58a3.66,3.66,0,0,0-3.23,3.74A2.65,2.65,0,0,0,17,45.13a3.74,3.74,0,0,0,3.68-3.39A3.28,3.28,0,0,0,17.59,38.58Z"/><path class="cls-1" d="M61.38,7.9A16.24,16.24,0,0,0,58.52,7c-2.32-.45-4.64-.8-7-1.2a9.61,9.61,0,0,0-7,1.13,41.84,41.84,0,0,0-8.79,7.12c-2.09,2.25-4.1,4.59-6.15,6.89a2.42,2.42,0,0,0-.18,3.39c.79,1,1.65,1.09,2.86.21,3.61-2.6,7.19-5.23,10.82-7.79,1.19-.84,2.34-1.89,3.87-2a43,43,0,0,1,5.78-.13,37.06,37.06,0,0,1,5.66,1.21,1.93,1.93,0,0,1,1.28,2.27,1.53,1.53,0,0,1-1.86,1.5,17.83,17.83,0,0,1-2.17-.34A191.52,191.52,0,0,0,72.06,36.26a14.47,14.47,0,0,0,2-5.16,6.73,6.73,0,0,0-.69-4.84q-4.22-7.44-8.19-15A7,7,0,0,0,61.38,7.9Z"/><path class="cls-1" d="M8.65,29.19,1.94,25A4.33,4.33,0,0,1,.52,19.32L9.77,2.08A3.72,3.72,0,0,1,15.06.56l6.71,4.17Z"/><path class="cls-1" d="M65.25,4.73,72,.56a3.73,3.73,0,0,1,5.29,1.52l9.25,17.24A4.34,4.34,0,0,1,85.09,25l-6.72,4.18Z"/></g></g></svg>