<svg xmlns="http://www.w3.org/2000/svg" viewBox="0 0 81.72 62.33"><defs><style>.cls-1{fill:#efefef;}</style></defs><g id="Capa_2" data-name="Capa 2"><g id="Hero"><path class="cls-1" d="M77.25,40.42H72.72V31H58.23V19.81h4.1a4.09,4.09,0,0,0,3.92-4.22V4.22A4.09,4.09,0,0,0,62.33,0H50a4.09,4.09,0,0,0-3.92,4.22V15.59A4.09,4.09,0,0,0,50,19.81h4.08V31H29.8V19.81h4.1a4.09,4.09,0,0,0,3.92-4.22V4.22A4.09,4.09,0,0,0,33.9,0H21.54a4.09,4.09,0,0,0-3.92,4.22V15.59a4.09,4.09,0,0,0,3.92,4.22h4.09V31H9v9.47H4.47A4.48,4.48,0,0,0,0,44.89v13a4.48,4.48,0,0,0,4.47,4.46H17.56A4.48,4.48,0,0,0,22,57.87v-13a4.48,4.48,0,0,0-4.47-4.47H13V35H39.56v5.44H35a4.48,4.48,0,0,0-4.46,4.47v13A4.48,4.48,0,0,0,35,62.33h13.1a4.48,4.48,0,0,0,4.47-4.46v-13a4.48,4.48,0,0,0-4.47-4.47H43.59V35h25.1v5.44H64.16a4.48,4.48,0,0,0-4.47,4.47v13a4.48,4.48,0,0,0,4.47,4.46H77.25a4.48,4.48,0,0,0,4.47-4.46v-13A4.48,4.48,0,0,0,77.25,40.42Z"/></g></g></svg>