<svg xmlns="http://www.w3.org/2000/svg" viewBox="0 0 65.54 71.76"><defs><style>.cls-1{fill:#efefef;}</style></defs><g id="Capa_2" data-name="Capa 2"><g id="Hero"><path class="cls-1" d="M37.25,6.53v-2a4.49,4.49,0,1,0-9,0v2a32.78,32.78,0,1,0,9,0ZM55.64,40.12H60a27.14,27.14,0,0,1-6.55,16.6l-3.3-3.3a1.68,1.68,0,1,0-2.37,2.38l3.33,3.33a27.2,27.2,0,0,1-16.63,7.05V61.31a1.68,1.68,0,1,0-3.36,0v4.87a27.13,27.13,0,0,1-16.64-7l3.34-3.34a1.68,1.68,0,0,0,0-2.38,1.7,1.7,0,0,0-2.38,0l-3.3,3.31a27.12,27.12,0,0,1-6.58-16.6H9.92a1.68,1.68,0,1,0,0-3.36H5.62a27.14,27.14,0,0,1,7-16.11l2.81,2.81A1.68,1.68,0,0,0,17.8,21.1L15,18.33a27.15,27.15,0,0,1,16.06-6.54v3.8a1.68,1.68,0,0,0,1.68,1.68h0a1.68,1.68,0,0,0,1.68-1.68v-3.8a27.15,27.15,0,0,1,16.06,6.54l-2.76,2.76a1.68,1.68,0,0,0,0,2.38,1.7,1.7,0,0,0,2.38,0l2.8-2.8a27.08,27.08,0,0,1,7,16.09H55.64a1.68,1.68,0,0,0,0,3.36Z"/><path class="cls-1" d="M27.65,42.25l2.87-2.85L42.91,27.21c.36-.35.51-.37.87,0,1.08,1,2.15,2.1,3.22,3.15.33.33.31.52-.07.89L39,39,28.23,49.63c-.45.45-.64.46-1.1,0l-8.49-8.35c-.43-.43-.43-.6,0-1l3-2.92c.48-.47.66-.47,1.14,0l4.65,4.58A2.51,2.51,0,0,1,27.65,42.25Z"/></g></g></svg>