<svg xmlns="http://www.w3.org/2000/svg" viewBox="0 0 59.27 70.57"><defs><style>.cls-1{fill:#efefef;}</style></defs><g id="Capa_2" data-name="Capa 2"><g id="Hero"><path class="cls-1" d="M.14,29.88c0-2.23,0-4.47,0-6.7,0-2.05,0-4.1-.06-6.15,0-2.23,0-4.46-.08-6.69A2.59,2.59,0,0,1,1.81,7.78,10.89,10.89,0,0,1,4.1,7.36c1.34-.16,2.7-.2,4-.39,1.72-.26,3.43-.59,5.14-.94a51.07,51.07,0,0,0,6.66-1.89A61.82,61.82,0,0,0,28.7.24a2,2,0,0,1,1.88,0c1.88.91,3.74,1.86,5.65,2.7,1.44.62,2.93,1.14,4.42,1.62s3.28,1,4.94,1.4a31.7,31.7,0,0,0,3.2.62c1.35.21,2.71.37,4.06.53s2.47.27,3.71.39a3.07,3.07,0,0,1,2.59,2,7.35,7.35,0,0,1,.11,1.76c0,3.64,0,7.29-.07,10.93q0,6.57,0,13.14a28.38,28.38,0,0,1-.49,4.78,30.13,30.13,0,0,1-1.39,5.13,31.69,31.69,0,0,1-3,6A39.71,39.71,0,0,1,47.83,59,56.8,56.8,0,0,1,40,65a82.6,82.6,0,0,1-7.78,4.43l-1.7.88a1.85,1.85,0,0,1-1.74,0,97.21,97.21,0,0,1-9.25-5.15,54.08,54.08,0,0,1-7.8-6A51.66,51.66,0,0,1,8,55.28a32.67,32.67,0,0,1-5.34-8.52A27,27,0,0,1,.9,41.36c-.16-.83-.28-1.68-.45-2.51C-.07,36.23.24,33.58.15,31c0-.36,0-.72,0-1.07ZM53,14.1c0-.63-.1-.77-.75-.85-.3,0-.62,0-.92-.07-1.47-.22-2.95-.43-4.42-.7s-2.74-.5-4.08-.86c-1.79-.48-3.58-1-5.31-1.62C35.34,9.19,33.15,8.28,31,7.33a2.9,2.9,0,0,0-2.7,0,53.53,53.53,0,0,1-8.5,3.33c-2.05.61-4.14,1.09-6.23,1.58a43.63,43.63,0,0,1-6.53,1c-.7.06-.84.25-.76.94,0,.14,0,.27,0,.41,0,2.08.06,4.16.07,6.24,0,4.68,0,9.35,0,14,0,1,.12,2.06.22,3.08A21.45,21.45,0,0,0,8,43.28a26,26,0,0,0,2.94,5.63,36.69,36.69,0,0,0,7.55,7.94,62.15,62.15,0,0,0,10.8,6.81,1,1,0,0,0,.78,0c1.3-.67,2.59-1.36,3.85-2.08a52.2,52.2,0,0,0,8.58-6.08,33.87,33.87,0,0,0,6.24-7.07c.54-.85,1-1.72,1.51-2.62a16,16,0,0,0,1.17-2.68c.17-.55.37-1.09.54-1.64a20.16,20.16,0,0,0,.95-5.59c0-4,0-8,0-12,0-1.32,0-2.64.06-4,0-1.12.05-2.25.07-3.37C53.05,15.75,53,14.93,53,14.1Z"/><path class="cls-1" d="M25.26,39c1.11-1.1,2.12-2.11,3.15-3.12Q35.19,29.2,42,22.53c.38-.39.55-.4.94,0,1.19,1.14,2.36,2.3,3.53,3.46.36.35.34.56-.07,1L37.7,35.49,25.9,47.1c-.5.5-.71.5-1.21,0L15.39,38c-.48-.47-.48-.66,0-1.13l3.25-3.2c.53-.52.72-.52,1.25,0l5.1,5A3,3,0,0,1,25.26,39Z"/></g></g></svg>